<svg width="145" height="43" viewBox="0 0 145 43" fill="none" xmlns="http://www.w3.org/2000/svg">
<g clip-path="url(#clip0_1934_2)">
<path d="M1.32102 12V1.09091H3.77841V2.9446H3.90625C4.13352 2.3196 4.50994 1.83191 5.03551 1.48153C5.56108 1.12642 6.18845 0.948864 6.91761 0.948864C7.65625 0.948864 8.27888 1.12879 8.78551 1.48864C9.29688 1.84375 9.65672 2.32907 9.86506 2.9446H9.97869C10.2202 2.33854 10.6274 1.85559 11.2003 1.49574C11.7779 1.13116 12.4621 0.948864 13.2528 0.948864C14.2566 0.948864 15.0758 1.2661 15.7102 1.90057C16.3447 2.53504 16.6619 3.4607 16.6619 4.67756V12H14.0838V5.07528C14.0838 4.3982 13.9039 3.90341 13.544 3.59091C13.1842 3.27367 12.7438 3.11506 12.223 3.11506C11.6027 3.11506 11.1174 3.30919 10.767 3.69744C10.4214 4.08097 10.2486 4.58049 10.2486 5.19602V12H7.72727V4.96875C7.72727 4.4053 7.55682 3.95549 7.21591 3.61932C6.87974 3.28314 6.43939 3.11506 5.89489 3.11506C5.52557 3.11506 5.18939 3.20975 4.88636 3.39915C4.58333 3.58381 4.34186 3.84659 4.16193 4.1875C3.98201 4.52367 3.89205 4.91667 3.89205 5.36648V12H1.32102ZM24.0288 12.2131C22.9634 12.2131 22.0401 11.9787 21.2589 11.5099C20.4776 11.0412 19.8716 10.3854 19.4407 9.54261C19.0146 8.69981 18.8015 7.71496 18.8015 6.58807C18.8015 5.46117 19.0146 4.47396 19.4407 3.62642C19.8716 2.77888 20.4776 2.12074 21.2589 1.65199C22.0401 1.18324 22.9634 0.948864 24.0288 0.948864C25.0941 0.948864 26.0174 1.18324 26.7987 1.65199C27.5799 2.12074 28.1836 2.77888 28.6097 3.62642C29.0406 4.47396 29.256 5.46117 29.256 6.58807C29.256 7.71496 29.0406 8.69981 28.6097 9.54261C28.1836 10.3854 27.5799 11.0412 26.7987 11.5099C26.0174 11.9787 25.0941 12.2131 24.0288 12.2131ZM24.043 10.1534C24.6206 10.1534 25.1036 9.99479 25.4918 9.67756C25.8801 9.35559 26.1689 8.92472 26.3583 8.38494C26.5524 7.84517 26.6495 7.24384 26.6495 6.58097C26.6495 5.91335 26.5524 5.30966 26.3583 4.76989C26.1689 4.22538 25.8801 3.79214 25.4918 3.47017C25.1036 3.1482 24.6206 2.98722 24.043 2.98722C23.4511 2.98722 22.9587 3.1482 22.5657 3.47017C22.1774 3.79214 21.8862 4.22538 21.6921 4.76989C21.5027 5.30966 21.408 5.91335 21.408 6.58097C21.408 7.24384 21.5027 7.84517 21.6921 8.38494C21.8862 8.92472 22.1774 9.35559 22.5657 9.67756C22.9587 9.99479 23.4511 10.1534 24.043 10.1534ZM34.0092 5.60795V12H31.4382V1.09091H33.8956V2.9446H34.0234C34.2744 2.33381 34.6745 1.84848 35.2237 1.48864C35.7777 1.12879 36.4619 0.948864 37.2763 0.948864C38.0291 0.948864 38.6849 1.10985 39.2436 1.43182C39.8071 1.75379 40.2427 2.22017 40.5504 2.83097C40.8629 3.44176 41.0168 4.18276 41.0121 5.05398V12H38.4411V5.4517C38.4411 4.72254 38.2517 4.15199 37.8729 3.74006C37.4988 3.32812 36.9804 3.12216 36.3175 3.12216C35.8677 3.12216 35.4676 3.22159 35.1172 3.42045C34.7715 3.61458 34.4993 3.89631 34.3004 4.26562C34.1063 4.63494 34.0092 5.08239 34.0092 5.60795ZM48.3842 12.2131C47.3189 12.2131 46.3956 11.9787 45.6143 11.5099C44.8331 11.0412 44.227 10.3854 43.7962 9.54261C43.37 8.69981 43.157 7.71496 43.157 6.58807C43.157 5.46117 43.37 4.47396 43.7962 3.62642C44.227 2.77888 44.8331 2.12074 45.6143 1.65199C46.3956 1.18324 47.3189 0.948864 48.3842 0.948864C49.4496 0.948864 50.3729 1.18324 51.1541 1.65199C51.9354 2.12074 52.5391 2.77888 52.9652 3.62642C53.3961 4.47396 53.6115 5.46117 53.6115 6.58807C53.6115 7.71496 53.3961 8.69981 52.9652 9.54261C52.5391 10.3854 51.9354 11.0412 51.1541 11.5099C50.3729 11.9787 49.4496 12.2131 48.3842 12.2131ZM48.3984 10.1534C48.9761 10.1534 49.459 9.99479 49.8473 9.67756C50.2356 9.35559 50.5244 8.92472 50.7138 8.38494C50.9079 7.84517 51.005 7.24384 51.005 6.58097C51.005 5.91335 50.9079 5.30966 50.7138 4.76989C50.5244 4.22538 50.2356 3.79214 49.8473 3.47017C49.459 3.1482 48.9761 2.98722 48.3984 2.98722C47.8066 2.98722 47.3142 3.1482 46.9212 3.47017C46.5329 3.79214 46.2417 4.22538 46.0476 4.76989C45.8582 5.30966 45.7635 5.91335 45.7635 6.58097C45.7635 7.24384 45.8582 7.84517 46.0476 8.38494C46.2417 8.92472 46.5329 9.35559 46.9212 9.67756C47.3142 9.99479 47.8066 10.1534 48.3984 10.1534ZM61.2411 1.09091V3.07955H54.9698V1.09091H61.2411ZM56.5181 -1.52273H59.0891V8.71875C59.0891 9.06439 59.1412 9.32955 59.2454 9.5142C59.3543 9.69413 59.4963 9.81723 59.6715 9.88352C59.8467 9.94981 60.0408 9.98295 60.2539 9.98295C60.4149 9.98295 60.5617 9.97112 60.6942 9.94744C60.8316 9.92377 60.9357 9.90246 61.0067 9.88352L61.44 11.8935C61.3027 11.9408 61.1062 11.9929 60.8505 12.0497C60.5996 12.1065 60.2918 12.1397 59.9272 12.1491C59.2833 12.1681 58.7032 12.071 58.1871 11.858C57.671 11.6402 57.2615 11.304 56.9585 10.8494C56.6602 10.3949 56.5134 9.8267 56.5181 9.14489V-1.52273ZM68.0327 12.2131C66.9673 12.2131 66.044 11.9787 65.2628 11.5099C64.4815 11.0412 63.8755 10.3854 63.4446 9.54261C63.0185 8.69981 62.8054 7.71496 62.8054 6.58807C62.8054 5.46117 63.0185 4.47396 63.4446 3.62642C63.8755 2.77888 64.4815 2.12074 65.2628 1.65199C66.044 1.18324 66.9673 0.948864 68.0327 0.948864C69.098 0.948864 70.0213 1.18324 70.8026 1.65199C71.5838 2.12074 72.1875 2.77888 72.6136 3.62642C73.0445 4.47396 73.2599 5.46117 73.2599 6.58807C73.2599 7.71496 73.0445 8.69981 72.6136 9.54261C72.1875 10.3854 71.5838 11.0412 70.8026 11.5099C70.0213 11.9787 69.098 12.2131 68.0327 12.2131ZM68.0469 10.1534C68.6245 10.1534 69.1075 9.99479 69.4957 9.67756C69.884 9.35559 70.1728 8.92472 70.3622 8.38494C70.5563 7.84517 70.6534 7.24384 70.6534 6.58097C70.6534 5.91335 70.5563 5.30966 70.3622 4.76989C70.1728 4.22538 69.884 3.79214 69.4957 3.47017C69.1075 3.1482 68.6245 2.98722 68.0469 2.98722C67.455 2.98722 66.9626 3.1482 66.5696 3.47017C66.1813 3.79214 65.8902 4.22538 65.696 4.76989C65.5066 5.30966 65.4119 5.91335 65.4119 6.58097C65.4119 7.24384 65.5066 7.84517 65.696 8.38494C65.8902 8.92472 66.1813 9.35559 66.5696 9.67756C66.9626 9.99479 67.455 10.1534 68.0469 10.1534ZM78.0131 5.60795V12H75.4421V1.09091H77.8995V2.9446H78.0273C78.2783 2.33381 78.6784 1.84848 79.2276 1.48864C79.7816 1.12879 80.4658 0.948864 81.2802 0.948864C82.033 0.948864 82.6888 1.10985 83.2475 1.43182C83.811 1.75379 84.2466 2.22017 84.5543 2.83097C84.8668 3.44176 85.0207 4.18276 85.016 5.05398V12H82.445V5.4517C82.445 4.72254 82.2556 4.15199 81.8768 3.74006C81.5027 3.32812 80.9843 3.12216 80.3214 3.12216C79.8716 3.12216 79.4715 3.22159 79.1211 3.42045C78.7754 3.61458 78.5032 3.89631 78.3043 4.26562C78.1102 4.63494 78.0131 5.08239 78.0131 5.60795ZM92.4592 12.2131C91.3654 12.2131 90.4208 11.9858 89.6254 11.5312C88.8346 11.072 88.2262 10.4233 87.8001 9.58523C87.3739 8.74242 87.1609 7.75047 87.1609 6.60938C87.1609 5.48722 87.3739 4.50237 87.8001 3.65483C88.2309 2.80256 88.8323 2.13968 89.604 1.66619C90.3758 1.18797 91.2826 0.948864 92.3242 0.948864C92.9966 0.948864 93.631 1.05777 94.2276 1.27557C94.829 1.48864 95.3593 1.82008 95.8185 2.26989C96.2826 2.7197 96.6471 3.29261 96.9123 3.98864C97.1774 4.67992 97.31 5.50379 97.31 6.46023V7.24858H88.3683V5.51562H94.8455C94.8408 5.0232 94.7343 4.58523 94.5259 4.2017C94.3176 3.81345 94.0264 3.50805 93.6523 3.28551C93.283 3.06297 92.8522 2.9517 92.3597 2.9517C91.8342 2.9517 91.3725 3.07955 90.9748 3.33523C90.5771 3.58617 90.2669 3.91761 90.0444 4.32955C89.8266 4.73674 89.7153 5.18419 89.7106 5.67188V7.18466C89.7106 7.81913 89.8266 8.36364 90.0586 8.81818C90.2906 9.26799 90.6149 9.61364 91.0316 9.85511C91.4483 10.0919 91.936 10.2102 92.4947 10.2102C92.8687 10.2102 93.2073 10.1581 93.5103 10.054C93.8133 9.94508 94.0761 9.78646 94.2987 9.57812C94.5212 9.36979 94.6893 9.11174 94.8029 8.80398L97.2035 9.07386C97.052 9.70833 96.7631 10.2623 96.337 10.7358C95.9156 11.2045 95.3758 11.5691 94.7177 11.8295C94.0595 12.0852 93.3067 12.2131 92.4592 12.2131ZM101.069 12.1562C100.638 12.1562 100.269 12.0047 99.9609 11.7017C99.6532 11.3987 99.5017 11.0294 99.5064 10.5938C99.5017 10.1676 99.6532 9.80303 99.9609 9.5C100.269 9.19697 100.638 9.04545 101.069 9.04545C101.486 9.04545 101.848 9.19697 102.156 9.5C102.468 9.80303 102.627 10.1676 102.631 10.5938C102.627 10.8826 102.551 11.1454 102.404 11.3821C102.262 11.6188 102.073 11.8082 101.836 11.9503C101.604 12.0876 101.348 12.1562 101.069 12.1562Z" fill="black"/>
<path d="M5.08807 34.2045C4.26989 34.2045 3.54759 33.9979 2.92116 33.5845C2.29474 33.1669 1.80469 32.5788 1.45099 31.8203C1.0973 31.0575 0.920455 30.1562 0.920455 29.1165C0.920455 28.0852 1.0973 27.1903 1.45099 26.4318C1.80469 25.6733 2.29688 25.0874 2.92756 24.674C3.55824 24.2607 4.28693 24.054 5.11364 24.054C5.75284 24.054 6.25781 24.1605 6.62855 24.3736C7.00355 24.5824 7.28906 24.821 7.48509 25.0895C7.68537 25.3537 7.84091 25.571 7.9517 25.7415H8.07955V20.9091H9.58807V34H8.13068V32.4915H7.9517C7.84091 32.6705 7.68324 32.8963 7.47869 33.169C7.27415 33.4375 6.98224 33.6783 6.60298 33.8913C6.22372 34.1001 5.71875 34.2045 5.08807 34.2045ZM5.29261 32.8494C5.89773 32.8494 6.40909 32.6918 6.8267 32.3764C7.24432 32.0568 7.56179 31.6158 7.77912 31.0533C7.99645 30.4865 8.10511 29.8324 8.10511 29.0909C8.10511 28.358 7.99858 27.7166 7.78551 27.1669C7.57244 26.6129 7.2571 26.1825 6.83949 25.8757C6.42188 25.5646 5.90625 25.4091 5.29261 25.4091C4.65341 25.4091 4.12074 25.5732 3.6946 25.9013C3.27273 26.2251 2.95526 26.6662 2.74219 27.2244C2.53338 27.7784 2.42898 28.4006 2.42898 29.0909C2.42898 29.7898 2.53551 30.4247 2.74858 30.9957C2.96591 31.5625 3.28551 32.0142 3.70739 32.3509C4.13352 32.6832 4.66193 32.8494 5.29261 32.8494ZM16.549 34.2045C15.6626 34.2045 14.8849 33.9936 14.2159 33.5717C13.5511 33.1499 13.0312 32.5597 12.6562 31.8011C12.2855 31.0426 12.1001 30.1562 12.1001 29.142C12.1001 28.1193 12.2855 27.2266 12.6562 26.4638C13.0312 25.701 13.5511 25.1087 14.2159 24.6868C14.8849 24.2649 15.6626 24.054 16.549 24.054C17.4354 24.054 18.2109 24.2649 18.8757 24.6868C19.5447 25.1087 20.0646 25.701 20.4354 26.4638C20.8104 27.2266 20.9979 28.1193 20.9979 29.142C20.9979 30.1562 20.8104 31.0426 20.4354 31.8011C20.0646 32.5597 19.5447 33.1499 18.8757 33.5717C18.2109 33.9936 17.4354 34.2045 16.549 34.2045ZM16.549 32.8494C17.2223 32.8494 17.7763 32.6768 18.2109 32.3317C18.6456 31.9865 18.9673 31.5327 19.1761 30.9702C19.3849 30.4077 19.4893 29.7983 19.4893 29.142C19.4893 28.4858 19.3849 27.8743 19.1761 27.3075C18.9673 26.7408 18.6456 26.2827 18.2109 25.9332C17.7763 25.5838 17.2223 25.4091 16.549 25.4091C15.8757 25.4091 15.3217 25.5838 14.8871 25.9332C14.4524 26.2827 14.1307 26.7408 13.9219 27.3075C13.7131 27.8743 13.6087 28.4858 13.6087 29.142C13.6087 29.7983 13.7131 30.4077 13.9219 30.9702C14.1307 31.5327 14.4524 31.9865 14.8871 32.3317C15.3217 32.6768 15.8757 32.8494 16.549 32.8494ZM27.2892 34.2045C26.3688 34.2045 25.5762 33.9872 24.9114 33.5526C24.2466 33.1179 23.7353 32.5192 23.3773 31.7564C23.0194 30.9936 22.8404 30.1222 22.8404 29.142C22.8404 28.1449 23.0236 27.2649 23.3901 26.5021C23.7608 25.7351 24.2765 25.1364 24.937 24.706C25.6017 24.2713 26.3773 24.054 27.2637 24.054C27.954 24.054 28.5762 24.1818 29.1301 24.4375C29.6841 24.6932 30.138 25.0511 30.4917 25.5114C30.8453 25.9716 31.0648 26.5085 31.15 27.1222H29.6415C29.5265 26.6747 29.2708 26.2784 28.8745 25.9332C28.4824 25.5838 27.954 25.4091 27.2892 25.4091C26.7012 25.4091 26.1855 25.5625 25.7424 25.8693C25.3034 26.1719 24.9604 26.6001 24.7132 27.1541C24.4703 27.7038 24.3489 28.3494 24.3489 29.0909C24.3489 29.8494 24.4682 30.5099 24.7069 31.0724C24.9498 31.6349 25.2907 32.0717 25.7296 32.3828C26.1728 32.6939 26.6926 32.8494 27.2892 32.8494C27.6813 32.8494 28.0371 32.7812 28.3567 32.6449C28.6763 32.5085 28.9469 32.3125 29.1685 32.0568C29.3901 31.8011 29.5478 31.4943 29.6415 31.1364H31.15C31.0648 31.7159 30.8539 32.2379 30.5172 32.7024C30.1848 33.1626 29.7438 33.5291 29.1941 33.8018C28.6486 34.0703 28.0137 34.2045 27.2892 34.2045ZM39.5428 29.9858V24.1818H41.0513V34H39.5428V32.3381H39.4405C39.2104 32.8366 38.8525 33.2607 38.3667 33.6101C37.8809 33.9553 37.2672 34.1278 36.5257 34.1278C35.9121 34.1278 35.3667 33.9936 34.8894 33.7251C34.4121 33.4524 34.0371 33.0433 33.7644 32.4979C33.4917 31.9482 33.3553 31.2557 33.3553 30.4205V24.1818H34.8638V30.3182C34.8638 31.0341 35.0641 31.6051 35.4647 32.0312C35.8695 32.4574 36.3851 32.6705 37.0115 32.6705C37.3865 32.6705 37.7679 32.5746 38.1557 32.3828C38.5478 32.1911 38.8759 31.897 39.1401 31.5007C39.4086 31.1044 39.5428 30.5994 39.5428 29.9858ZM43.8143 34V24.1818H45.2717V25.7159H45.3995C45.604 25.1918 45.9343 24.7848 46.3903 24.495C46.8462 24.201 47.3938 24.054 48.033 24.054C48.6808 24.054 49.2198 24.201 49.6502 24.495C50.0849 24.7848 50.4237 25.1918 50.6665 25.7159H50.7688C51.0202 25.2088 51.3974 24.8061 51.9002 24.5078C52.4031 24.2053 53.006 24.054 53.7092 24.054C54.587 24.054 55.305 24.3288 55.8633 24.8786C56.4215 25.424 56.7006 26.2741 56.7006 27.429V34H55.1921V27.429C55.1921 26.7045 54.994 26.1868 54.5977 25.8757C54.2013 25.5646 53.7347 25.4091 53.1978 25.4091C52.5075 25.4091 51.9727 25.6179 51.5934 26.0355C51.2141 26.4489 51.0245 26.973 51.0245 27.608V34H49.4904V27.2756C49.4904 26.7173 49.3093 26.2678 48.9471 25.9268C48.5849 25.5817 48.1183 25.4091 47.5472 25.4091C47.1552 25.4091 46.7887 25.5135 46.4478 25.7223C46.1112 25.9311 45.8384 26.2209 45.6296 26.5916C45.4251 26.9581 45.3228 27.3821 45.3228 27.8636V34H43.8143ZM63.5753 34.2045C62.6293 34.2045 61.8132 33.9957 61.1271 33.5781C60.4453 33.1562 59.919 32.5682 59.5483 31.8139C59.1818 31.0554 58.9986 30.1733 58.9986 29.1676C58.9986 28.1619 59.1818 27.2756 59.5483 26.5085C59.919 25.7372 60.4347 25.1364 61.0952 24.706C61.7599 24.2713 62.5355 24.054 63.4219 24.054C63.9332 24.054 64.4382 24.1392 64.9368 24.3097C65.4354 24.4801 65.8892 24.7571 66.2983 25.1406C66.7074 25.5199 67.0334 26.0227 67.2763 26.6491C67.5192 27.2756 67.6406 28.0469 67.6406 28.9631V29.6023H60.0724V28.2983H66.1065C66.1065 27.7443 65.9957 27.25 65.7741 26.8153C65.5568 26.3807 65.2457 26.0376 64.8409 25.7862C64.4403 25.5348 63.9673 25.4091 63.4219 25.4091C62.821 25.4091 62.3011 25.5582 61.8622 25.8565C61.4276 26.1506 61.093 26.5341 60.8587 27.0071C60.6243 27.4801 60.5071 27.9872 60.5071 28.5284V29.3977C60.5071 30.1392 60.6349 30.7678 60.8906 31.2834C61.1506 31.7947 61.5107 32.1847 61.9709 32.4531C62.4311 32.7173 62.9659 32.8494 63.5753 32.8494C63.9716 32.8494 64.3295 32.794 64.6491 32.6832C64.973 32.5682 65.2521 32.3977 65.4865 32.1719C65.7209 31.9418 65.902 31.6562 66.0298 31.3153L67.4872 31.7244C67.3338 32.2188 67.076 32.6534 66.7138 33.0284C66.3516 33.3991 65.9041 33.6889 65.3714 33.8977C64.8388 34.1023 64.2401 34.2045 63.5753 34.2045ZM71.4439 28.0938V34H69.9354V24.1818H71.3928V25.7159H71.5206C71.7507 25.2173 72.1001 24.8168 72.5689 24.5142C73.0376 24.2074 73.6428 24.054 74.3842 24.054C75.049 24.054 75.6307 24.1903 76.1293 24.4631C76.6278 24.7315 77.0156 25.1406 77.2926 25.6903C77.5696 26.2358 77.7081 26.9261 77.7081 27.7614V34H76.1996V27.8636C76.1996 27.0923 75.9993 26.4915 75.5987 26.0611C75.1982 25.6264 74.6484 25.4091 73.9496 25.4091C73.468 25.4091 73.0376 25.5135 72.6584 25.7223C72.2834 25.9311 71.9872 26.2358 71.7699 26.6364C71.5526 27.0369 71.4439 27.5227 71.4439 28.0938ZM84.7346 24.1818V25.4602H79.6465V24.1818H84.7346ZM81.1294 21.8295H82.638V31.1875C82.638 31.6136 82.6998 31.9332 82.8233 32.1463C82.9512 32.3551 83.1131 32.4957 83.3091 32.5682C83.5094 32.6364 83.7203 32.6705 83.9419 32.6705C84.1081 32.6705 84.2445 32.6619 84.351 32.6449C84.4576 32.6236 84.5428 32.6065 84.6067 32.5938L84.9135 33.9489C84.8113 33.9872 84.6685 34.0256 84.4853 34.0639C84.302 34.1065 84.0698 34.1278 83.7885 34.1278C83.3624 34.1278 82.9448 34.0362 82.5357 33.853C82.1309 33.6697 81.7942 33.3906 81.5257 33.0156C81.2615 32.6406 81.1294 32.1676 81.1294 31.5966V21.8295ZM89.8929 34.2301C89.2708 34.2301 88.7061 34.1129 88.199 33.8786C87.6919 33.6399 87.2892 33.2969 86.9909 32.8494C86.6926 32.3977 86.5435 31.8523 86.5435 31.2131C86.5435 30.6506 86.6543 30.1946 86.8759 29.8452C87.0975 29.4915 87.3936 29.2145 87.7644 29.0142C88.1351 28.8139 88.5442 28.6648 88.9917 28.5668C89.4434 28.4645 89.8972 28.3835 90.3532 28.3239C90.9498 28.2472 91.4334 28.1896 91.8042 28.1513C92.1792 28.1087 92.4519 28.0384 92.6223 27.9403C92.7971 27.8423 92.8844 27.6719 92.8844 27.429V27.3778C92.8844 26.7472 92.7118 26.2571 92.3667 25.9077C92.0257 25.5582 91.508 25.3835 90.8134 25.3835C90.0932 25.3835 89.5286 25.5412 89.1195 25.8565C88.7104 26.1719 88.4228 26.5085 88.2566 26.8665L86.8248 26.3551C87.0804 25.7585 87.4213 25.294 87.8475 24.9616C88.2779 24.625 88.7466 24.3906 89.2537 24.2585C89.7651 24.1222 90.2679 24.054 90.7623 24.054C91.0776 24.054 91.4398 24.0923 91.8489 24.169C92.2623 24.2415 92.6607 24.3928 93.0442 24.6229C93.432 24.853 93.7537 25.2003 94.0094 25.6648C94.2651 26.1293 94.3929 26.7514 94.3929 27.5312V34H92.8844V32.6705H92.8077C92.7054 32.8835 92.535 33.1115 92.2963 33.3544C92.0577 33.5973 91.7402 33.804 91.3439 33.9744C90.9476 34.1449 90.464 34.2301 89.8929 34.2301ZM90.123 32.875C90.7196 32.875 91.2225 32.7578 91.6316 32.5234C92.0449 32.2891 92.356 31.9865 92.5648 31.6158C92.7779 31.245 92.8844 30.8551 92.8844 30.446V29.0653C92.8205 29.142 92.6799 29.2124 92.4625 29.2763C92.2495 29.3359 92.0023 29.3892 91.7211 29.4361C91.4441 29.4787 91.1735 29.517 90.9093 29.5511C90.6493 29.581 90.4384 29.6065 90.2765 29.6278C89.8844 29.679 89.5179 29.7621 89.177 29.8771C88.8404 29.9879 88.5676 30.1562 88.3588 30.3821C88.1543 30.6037 88.052 30.9062 88.052 31.2898C88.052 31.8139 88.2459 32.2102 88.6337 32.4787C89.0257 32.7429 89.5222 32.875 90.123 32.875ZM101.416 24.1818V25.4602H96.3281V24.1818H101.416ZM97.8111 21.8295H99.3196V31.1875C99.3196 31.6136 99.3814 31.9332 99.505 32.1463C99.6328 32.3551 99.7947 32.4957 99.9908 32.5682C100.191 32.6364 100.402 32.6705 100.624 32.6705C100.79 32.6705 100.926 32.6619 101.033 32.6449C101.139 32.6236 101.224 32.6065 101.288 32.5938L101.595 33.9489C101.493 33.9872 101.35 34.0256 101.167 34.0639C100.984 34.1065 100.751 34.1278 100.47 34.1278C100.044 34.1278 99.6264 34.0362 99.2173 33.853C98.8125 33.6697 98.4759 33.3906 98.2074 33.0156C97.9432 32.6406 97.8111 32.1676 97.8111 31.5966V21.8295ZM103.685 34V24.1818H105.194V34H103.685ZM104.452 22.5455C104.158 22.5455 103.905 22.4453 103.692 22.245C103.483 22.0447 103.379 21.804 103.379 21.5227C103.379 21.2415 103.483 21.0007 103.692 20.8004C103.905 20.6001 104.158 20.5 104.452 20.5C104.746 20.5 104.998 20.6001 105.207 20.8004C105.42 21.0007 105.526 21.2415 105.526 21.5227C105.526 21.804 105.42 22.0447 105.207 22.245C104.998 22.4453 104.746 22.5455 104.452 22.5455ZM111.945 34.2045C111.059 34.2045 110.281 33.9936 109.612 33.5717C108.948 33.1499 108.428 32.5597 108.053 31.8011C107.682 31.0426 107.497 30.1562 107.497 29.142C107.497 28.1193 107.682 27.2266 108.053 26.4638C108.428 25.701 108.948 25.1087 109.612 24.6868C110.281 24.2649 111.059 24.054 111.945 24.054C112.832 24.054 113.607 24.2649 114.272 24.6868C114.941 25.1087 115.461 25.701 115.832 26.4638C116.207 27.2266 116.394 28.1193 116.394 29.142C116.394 30.1562 116.207 31.0426 115.832 31.8011C115.461 32.5597 114.941 33.1499 114.272 33.5717C113.607 33.9936 112.832 34.2045 111.945 34.2045ZM111.945 32.8494C112.619 32.8494 113.173 32.6768 113.607 32.3317C114.042 31.9865 114.364 31.5327 114.573 30.9702C114.781 30.4077 114.886 29.7983 114.886 29.142C114.886 28.4858 114.781 27.8743 114.573 27.3075C114.364 26.7408 114.042 26.2827 113.607 25.9332C113.173 25.5838 112.619 25.4091 111.945 25.4091C111.272 25.4091 110.718 25.5838 110.284 25.9332C109.849 26.2827 109.527 26.7408 109.318 27.3075C109.11 27.8743 109.005 28.4858 109.005 29.142C109.005 29.7983 109.11 30.4077 109.318 30.9702C109.527 31.5327 109.849 31.9865 110.284 32.3317C110.718 32.6768 111.272 32.8494 111.945 32.8494ZM120.206 28.0938V34H118.697V24.1818H120.154V25.7159H120.282C120.512 25.2173 120.862 24.8168 121.331 24.5142C121.799 24.2074 122.404 24.054 123.146 24.054C123.811 24.054 124.392 24.1903 124.891 24.4631C125.39 24.7315 125.777 25.1406 126.054 25.6903C126.331 26.2358 126.47 26.9261 126.47 27.7614V34H124.961V27.8636C124.961 27.0923 124.761 26.4915 124.36 26.0611C123.96 25.6264 123.41 25.4091 122.711 25.4091C122.23 25.4091 121.799 25.5135 121.42 25.7223C121.045 25.9311 120.749 26.2358 120.532 26.6364C120.314 27.0369 120.206 27.5227 120.206 28.0938Z" fill="#D2D2D2"/>
</g>
<defs>
<clipPath id="clip0_1934_2">
<rect width="145" height="43" fill="white"/>
</clipPath>
</defs>
</svg>
