<svg width="123" height="43" viewBox="0 0 123 43" fill="none" xmlns="http://www.w3.org/2000/svg">
<path d="M0.321023 14V3.09091H2.77841V4.9446H2.90625C3.13352 4.3196 3.50994 3.83191 4.03551 3.48153C4.56108 3.12642 5.18845 2.94886 5.91761 2.94886C6.65625 2.94886 7.27888 3.12879 7.78551 3.48864C8.29688 3.84375 8.65672 4.32907 8.86506 4.9446H8.97869C9.22017 4.33854 9.62737 3.85559 10.2003 3.49574C10.7779 3.13116 11.4621 2.94886 12.2528 2.94886C13.2566 2.94886 14.0758 3.2661 14.7102 3.90057C15.3447 4.53504 15.6619 5.4607 15.6619 6.67756V14H13.0838V7.07528C13.0838 6.3982 12.9039 5.90341 12.544 5.59091C12.1842 5.27367 11.7438 5.11506 11.223 5.11506C10.6027 5.11506 10.1174 5.30919 9.76705 5.69744C9.4214 6.08097 9.24858 6.58049 9.24858 7.19602V14H6.72727V6.96875C6.72727 6.4053 6.55682 5.95549 6.21591 5.61932C5.87974 5.28314 5.43939 5.11506 4.89489 5.11506C4.52557 5.11506 4.18939 5.20975 3.88636 5.39915C3.58333 5.58381 3.34186 5.84659 3.16193 6.1875C2.98201 6.52367 2.89205 6.91667 2.89205 7.36648V14H0.321023ZM23.0288 14.2131C21.9634 14.2131 21.0401 13.9787 20.2589 13.5099C19.4776 13.0412 18.8716 12.3854 18.4407 11.5426C18.0146 10.6998 17.8015 9.71496 17.8015 8.58807C17.8015 7.46117 18.0146 6.47396 18.4407 5.62642C18.8716 4.77888 19.4776 4.12074 20.2589 3.65199C21.0401 3.18324 21.9634 2.94886 23.0288 2.94886C24.0941 2.94886 25.0174 3.18324 25.7987 3.65199C26.5799 4.12074 27.1836 4.77888 27.6097 5.62642C28.0406 6.47396 28.256 7.46117 28.256 8.58807C28.256 9.71496 28.0406 10.6998 27.6097 11.5426C27.1836 12.3854 26.5799 13.0412 25.7987 13.5099C25.0174 13.9787 24.0941 14.2131 23.0288 14.2131ZM23.043 12.1534C23.6206 12.1534 24.1036 11.9948 24.4918 11.6776C24.8801 11.3556 25.1689 10.9247 25.3583 10.3849C25.5524 9.84517 25.6495 9.24384 25.6495 8.58097C25.6495 7.91335 25.5524 7.30966 25.3583 6.76989C25.1689 6.22538 24.8801 5.79214 24.4918 5.47017C24.1036 5.1482 23.6206 4.98722 23.043 4.98722C22.4511 4.98722 21.9587 5.1482 21.5657 5.47017C21.1774 5.79214 20.8862 6.22538 20.6921 6.76989C20.5027 7.30966 20.408 7.91335 20.408 8.58097C20.408 9.24384 20.5027 9.84517 20.6921 10.3849C20.8862 10.9247 21.1774 11.3556 21.5657 11.6776C21.9587 11.9948 22.4511 12.1534 23.043 12.1534ZM33.0092 7.60795V14H30.4382V3.09091H32.8956V4.9446H33.0234C33.2744 4.33381 33.6745 3.84848 34.2237 3.48864C34.7777 3.12879 35.4619 2.94886 36.2763 2.94886C37.0291 2.94886 37.6849 3.10985 38.2436 3.43182C38.8071 3.75379 39.2427 4.22017 39.5504 4.83097C39.8629 5.44176 40.0168 6.18276 40.0121 7.05398V14H37.4411V7.4517C37.4411 6.72254 37.2517 6.15199 36.8729 5.74006C36.4988 5.32812 35.9804 5.12216 35.3175 5.12216C34.8677 5.12216 34.4676 5.22159 34.1172 5.42045C33.7715 5.61458 33.4993 5.89631 33.3004 6.26562C33.1063 6.63494 33.0092 7.08239 33.0092 7.60795ZM47.3842 14.2131C46.3189 14.2131 45.3956 13.9787 44.6143 13.5099C43.8331 13.0412 43.227 12.3854 42.7962 11.5426C42.37 10.6998 42.157 9.71496 42.157 8.58807C42.157 7.46117 42.37 6.47396 42.7962 5.62642C43.227 4.77888 43.8331 4.12074 44.6143 3.65199C45.3956 3.18324 46.3189 2.94886 47.3842 2.94886C48.4496 2.94886 49.3729 3.18324 50.1541 3.65199C50.9354 4.12074 51.5391 4.77888 51.9652 5.62642C52.3961 6.47396 52.6115 7.46117 52.6115 8.58807C52.6115 9.71496 52.3961 10.6998 51.9652 11.5426C51.5391 12.3854 50.9354 13.0412 50.1541 13.5099C49.3729 13.9787 48.4496 14.2131 47.3842 14.2131ZM47.3984 12.1534C47.9761 12.1534 48.459 11.9948 48.8473 11.6776C49.2356 11.3556 49.5244 10.9247 49.7138 10.3849C49.9079 9.84517 50.005 9.24384 50.005 8.58097C50.005 7.91335 49.9079 7.30966 49.7138 6.76989C49.5244 6.22538 49.2356 5.79214 48.8473 5.47017C48.459 5.1482 47.9761 4.98722 47.3984 4.98722C46.8066 4.98722 46.3142 5.1482 45.9212 5.47017C45.5329 5.79214 45.2417 6.22538 45.0476 6.76989C44.8582 7.30966 44.7635 7.91335 44.7635 8.58097C44.7635 9.24384 44.8582 9.84517 45.0476 10.3849C45.2417 10.9247 45.5329 11.3556 45.9212 11.6776C46.3142 11.9948 46.8066 12.1534 47.3984 12.1534ZM60.2411 3.09091V5.07955H53.9698V3.09091H60.2411ZM55.5181 0.477273H58.0891V10.7188C58.0891 11.0644 58.1412 11.3295 58.2454 11.5142C58.3543 11.6941 58.4963 11.8172 58.6715 11.8835C58.8467 11.9498 59.0408 11.983 59.2539 11.983C59.4149 11.983 59.5617 11.9711 59.6942 11.9474C59.8316 11.9238 59.9357 11.9025 60.0067 11.8835L60.44 13.8935C60.3027 13.9408 60.1062 13.9929 59.8505 14.0497C59.5996 14.1065 59.2918 14.1397 58.9272 14.1491C58.2833 14.1681 57.7032 14.071 57.1871 13.858C56.671 13.6402 56.2615 13.304 55.9585 12.8494C55.6602 12.3949 55.5134 11.8267 55.5181 11.1449V0.477273ZM67.0327 14.2131C65.9673 14.2131 65.044 13.9787 64.2628 13.5099C63.4815 13.0412 62.8755 12.3854 62.4446 11.5426C62.0185 10.6998 61.8054 9.71496 61.8054 8.58807C61.8054 7.46117 62.0185 6.47396 62.4446 5.62642C62.8755 4.77888 63.4815 4.12074 64.2628 3.65199C65.044 3.18324 65.9673 2.94886 67.0327 2.94886C68.098 2.94886 69.0213 3.18324 69.8026 3.65199C70.5838 4.12074 71.1875 4.77888 71.6136 5.62642C72.0445 6.47396 72.2599 7.46117 72.2599 8.58807C72.2599 9.71496 72.0445 10.6998 71.6136 11.5426C71.1875 12.3854 70.5838 13.0412 69.8026 13.5099C69.0213 13.9787 68.098 14.2131 67.0327 14.2131ZM67.0469 12.1534C67.6245 12.1534 68.1075 11.9948 68.4957 11.6776C68.884 11.3556 69.1728 10.9247 69.3622 10.3849C69.5563 9.84517 69.6534 9.24384 69.6534 8.58097C69.6534 7.91335 69.5563 7.30966 69.3622 6.76989C69.1728 6.22538 68.884 5.79214 68.4957 5.47017C68.1075 5.1482 67.6245 4.98722 67.0469 4.98722C66.455 4.98722 65.9626 5.1482 65.5696 5.47017C65.1813 5.79214 64.8902 6.22538 64.696 6.76989C64.5066 7.30966 64.4119 7.91335 64.4119 8.58097C64.4119 9.24384 64.5066 9.84517 64.696 10.3849C64.8902 10.9247 65.1813 11.3556 65.5696 11.6776C65.9626 11.9948 66.455 12.1534 67.0469 12.1534ZM77.0131 7.60795V14H74.4421V3.09091H76.8995V4.9446H77.0273C77.2783 4.33381 77.6784 3.84848 78.2276 3.48864C78.7816 3.12879 79.4658 2.94886 80.2802 2.94886C81.033 2.94886 81.6888 3.10985 82.2475 3.43182C82.811 3.75379 83.2466 4.22017 83.5543 4.83097C83.8668 5.44176 84.0207 6.18276 84.016 7.05398V14H81.445V7.4517C81.445 6.72254 81.2556 6.15199 80.8768 5.74006C80.5027 5.32812 79.9843 5.12216 79.3214 5.12216C78.8716 5.12216 78.4715 5.22159 78.1211 5.42045C77.7754 5.61458 77.5032 5.89631 77.3043 6.26562C77.1102 6.63494 77.0131 7.08239 77.0131 7.60795ZM91.4592 14.2131C90.3654 14.2131 89.4208 13.9858 88.6254 13.5312C87.8346 13.072 87.2262 12.4233 86.8001 11.5852C86.3739 10.7424 86.1609 9.75047 86.1609 8.60938C86.1609 7.48722 86.3739 6.50237 86.8001 5.65483C87.2309 4.80256 87.8323 4.13968 88.604 3.66619C89.3758 3.18797 90.2826 2.94886 91.3242 2.94886C91.9966 2.94886 92.631 3.05777 93.2276 3.27557C93.829 3.48864 94.3593 3.82008 94.8185 4.26989C95.2826 4.7197 95.6471 5.29261 95.9123 5.98864C96.1774 6.67992 96.31 7.50379 96.31 8.46023V9.24858H87.3683V7.51562H93.8455C93.8408 7.0232 93.7343 6.58523 93.5259 6.2017C93.3176 5.81345 93.0264 5.50805 92.6523 5.28551C92.283 5.06297 91.8522 4.9517 91.3597 4.9517C90.8342 4.9517 90.3725 5.07955 89.9748 5.33523C89.5771 5.58617 89.2669 5.91761 89.0444 6.32955C88.8266 6.73674 88.7153 7.18419 88.7106 7.67188V9.18466C88.7106 9.81913 88.8266 10.3636 89.0586 10.8182C89.2906 11.268 89.6149 11.6136 90.0316 11.8551C90.4483 12.0919 90.936 12.2102 91.4947 12.2102C91.8687 12.2102 92.2073 12.1581 92.5103 12.054C92.8133 11.9451 93.0761 11.7865 93.2987 11.5781C93.5212 11.3698 93.6893 11.1117 93.8029 10.804L96.2035 11.0739C96.052 11.7083 95.7631 12.2623 95.337 12.7358C94.9156 13.2045 94.3758 13.5691 93.7177 13.8295C93.0595 14.0852 92.3067 14.2131 91.4592 14.2131ZM100.069 14.1562C99.638 14.1562 99.2687 14.0047 98.9609 13.7017C98.6532 13.3987 98.5017 13.0294 98.5064 12.5938C98.5017 12.1676 98.6532 11.803 98.9609 11.5C99.2687 11.197 99.638 11.0455 100.069 11.0455C100.486 11.0455 100.848 11.197 101.156 11.5C101.468 11.803 101.627 12.1676 101.631 12.5938C101.627 12.8826 101.551 13.1454 101.404 13.3821C101.262 13.6188 101.073 13.8082 100.836 13.9503C100.604 14.0876 100.348 14.1562 100.069 14.1562Z" fill="black"/>
<path d="M3.56392 42.163C2.83546 42.163 2.18348 41.9759 1.60795 41.6016C1.03243 41.2273 0.577652 40.6839 0.243608 39.9716C-0.0904355 39.2592 -0.257457 38.3939 -0.257457 37.3757C-0.257457 36.3454 -0.0884233 35.4761 0.249645 34.7678C0.591738 34.0554 1.05256 33.5181 1.6321 33.1559C2.21165 32.7897 2.8576 32.6065 3.56996 32.6065C4.11328 32.6065 4.56001 32.6991 4.91016 32.8842C5.2603 33.0653 5.538 33.2847 5.74325 33.5423C5.94851 33.7958 6.10748 34.0353 6.22017 34.2607H6.31072V29.6364H8.50213V42H6.35298V40.5391H6.22017C6.10748 40.7644 5.94448 41.0039 5.73118 41.2575C5.51787 41.507 5.23615 41.7203 4.88601 41.8974C4.53587 42.0745 4.09517 42.163 3.56392 42.163ZM4.17365 40.37C4.63648 40.37 5.0309 40.2453 5.35689 39.9957C5.68288 39.7422 5.9304 39.39 6.09943 38.9393C6.26847 38.4885 6.35298 37.9633 6.35298 37.3636C6.35298 36.764 6.26847 36.2428 6.09943 35.8001C5.93442 35.3574 5.68892 35.0133 5.36293 34.7678C5.04096 34.5223 4.64453 34.3995 4.17365 34.3995C3.68667 34.3995 3.28018 34.5263 2.95419 34.7798C2.6282 35.0334 2.38269 35.3835 2.21768 35.8303C2.05268 36.277 1.97017 36.7881 1.97017 37.3636C1.97017 37.9432 2.05268 38.4603 2.21768 38.9151C2.38672 39.3659 2.63423 39.7221 2.96023 39.9837C3.29025 40.2412 3.69472 40.37 4.17365 40.37ZM14.8756 42.1811C13.9701 42.1811 13.1853 41.9819 12.5212 41.5835C11.8572 41.185 11.342 40.6276 10.9758 39.9112C10.6135 39.1948 10.4324 38.3577 10.4324 37.3999C10.4324 36.442 10.6135 35.6029 10.9758 34.8825C11.342 34.162 11.8572 33.6026 12.5212 33.2042C13.1853 32.8058 13.9701 32.6065 14.8756 32.6065C15.7812 32.6065 16.566 32.8058 17.23 33.2042C17.8941 33.6026 18.4072 34.162 18.7694 34.8825C19.1357 35.6029 19.3188 36.442 19.3188 37.3999C19.3188 38.3577 19.1357 39.1948 18.7694 39.9112C18.4072 40.6276 17.8941 41.185 17.23 41.5835C16.566 41.9819 15.7812 42.1811 14.8756 42.1811ZM14.8877 40.4304C15.3787 40.4304 15.7892 40.2956 16.1192 40.0259C16.4492 39.7522 16.6948 39.386 16.8557 38.9272C17.0207 38.4684 17.1032 37.9573 17.1032 37.3938C17.1032 36.8263 17.0207 36.3132 16.8557 35.8544C16.6948 35.3916 16.4492 35.0233 16.1192 34.7496C15.7892 34.476 15.3787 34.3391 14.8877 34.3391C14.3846 34.3391 13.9661 34.476 13.632 34.7496C13.302 35.0233 13.0545 35.3916 12.8895 35.8544C12.7285 36.3132 12.648 36.8263 12.648 37.3938C12.648 37.9573 12.7285 38.4684 12.8895 38.9272C13.0545 39.386 13.302 39.7522 13.632 40.0259C13.9661 40.2956 14.3846 40.4304 14.8877 40.4304ZM25.2184 42.1811C24.2927 42.1811 23.4979 41.9779 22.8338 41.5714C22.1738 41.1649 21.6647 40.6035 21.3065 39.8871C20.9523 39.1667 20.7752 38.3376 20.7752 37.3999C20.7752 36.4581 20.9563 35.627 21.3185 34.9066C21.6808 34.1822 22.1919 33.6187 22.8519 33.2163C23.516 32.8098 24.3008 32.6065 25.2063 32.6065C25.9589 32.6065 26.625 32.7454 27.2045 33.0231C27.7881 33.2968 28.253 33.6851 28.5991 34.1882C28.9452 34.6873 29.1424 35.2708 29.1907 35.9389H27.1019C27.0174 35.4922 26.8162 35.1199 26.4982 34.8221C26.1843 34.5202 25.7637 34.3693 25.2365 34.3693C24.7898 34.3693 24.3974 34.4901 24.0593 34.7315C23.7212 34.969 23.4576 35.3111 23.2685 35.7578C23.0833 36.2045 22.9908 36.7398 22.9908 37.3636C22.9908 37.9955 23.0833 38.5388 23.2685 38.9936C23.4536 39.4444 23.7132 39.7925 24.0472 40.038C24.3853 40.2795 24.7817 40.4002 25.2365 40.4002C25.5585 40.4002 25.8462 40.3398 26.0998 40.2191C26.3574 40.0943 26.5727 39.9152 26.7457 39.6818C26.9188 39.4484 27.0375 39.1647 27.1019 38.8306H29.1907C29.1384 39.4866 28.9452 40.0682 28.6112 40.5753C28.2771 41.0784 27.8223 41.4728 27.2468 41.7585C26.6713 42.0402 25.9951 42.1811 25.2184 42.1811ZM36.8953 38.1001V32.7273H39.0807V42H36.9617V40.3519H36.8651C36.6559 40.8711 36.3118 41.2957 35.8328 41.6257C35.3579 41.9557 34.7723 42.1207 34.0761 42.1207C33.4684 42.1207 32.9311 41.9859 32.4642 41.7163C32.0014 41.4426 31.6392 41.0462 31.3776 40.527C31.116 40.0038 30.9852 39.3719 30.9852 38.6314V32.7273H33.1705V38.2933C33.1705 38.8809 33.3315 39.3478 33.6535 39.6939C33.9755 40.04 34.3981 40.2131 34.9213 40.2131C35.2432 40.2131 35.5551 40.1346 35.857 39.9776C36.1588 39.8207 36.4063 39.5872 36.5995 39.2773C36.7967 38.9634 36.8953 38.571 36.8953 38.1001ZM41.3279 42V32.7273H43.4167V34.3029H43.5254C43.7186 33.7717 44.0385 33.3571 44.4853 33.0593C44.932 32.7575 45.4653 32.6065 46.085 32.6065C46.7129 32.6065 47.2421 32.7595 47.6728 33.0653C48.1074 33.3672 48.4133 33.7797 48.5904 34.3029H48.687C48.8922 33.7878 49.2383 33.3772 49.7253 33.0714C50.2163 32.7615 50.7979 32.6065 51.47 32.6065C52.3232 32.6065 53.0195 32.8762 53.5588 33.4155C54.0981 33.9548 54.3677 34.7416 54.3677 35.7759V42H52.1763V36.114C52.1763 35.5385 52.0234 35.1179 51.7175 34.8523C51.4116 34.5826 51.0373 34.4478 50.5946 34.4478C50.0674 34.4478 49.6549 34.6128 49.3571 34.9428C49.0633 35.2688 48.9164 35.6934 48.9164 36.2166V42H46.7733V36.0234C46.7733 35.5445 46.6284 35.1622 46.3386 34.8764C46.0529 34.5907 45.6786 34.4478 45.2157 34.4478C44.9018 34.4478 44.6161 34.5283 44.3585 34.6893C44.1009 34.8462 43.8957 35.0696 43.7427 35.3594C43.5898 35.6451 43.5133 35.9792 43.5133 36.3615V42H41.3279ZM60.6899 42.1811C59.7602 42.1811 58.9573 41.9879 58.2812 41.6016C57.609 41.2112 57.0919 40.6598 56.7297 39.9474C56.3675 39.2311 56.1863 38.3879 56.1863 37.418C56.1863 36.4641 56.3675 35.627 56.7297 34.9066C57.0959 34.1822 57.607 33.6187 58.2631 33.2163C58.9191 32.8098 59.6898 32.6065 60.5752 32.6065C61.1467 32.6065 61.686 32.6991 62.1931 32.8842C62.7042 33.0653 63.155 33.3471 63.5454 33.7294C63.9398 34.1117 64.2497 34.5987 64.4751 35.1903C64.7004 35.7779 64.8131 36.4782 64.8131 37.2912V37.9613H57.2126V36.4883H62.7183C62.7143 36.0697 62.6237 35.6974 62.4466 35.3714C62.2696 35.0414 62.022 34.7818 61.7041 34.5927C61.3902 34.4035 61.0239 34.3089 60.6054 34.3089C60.1586 34.3089 59.7662 34.4176 59.4282 34.6349C59.0901 34.8482 58.8265 35.13 58.6373 35.4801C58.4522 35.8262 58.3576 36.2066 58.3536 36.6211V37.907C58.3536 38.4463 58.4522 38.9091 58.6494 39.2955C58.8466 39.6778 59.1223 39.9716 59.4765 40.1768C59.8306 40.3781 60.2452 40.4787 60.7201 40.4787C61.038 40.4787 61.3258 40.4344 61.5834 40.3459C61.8409 40.2533 62.0643 40.1185 62.2535 39.9414C62.4426 39.7643 62.5855 39.545 62.6821 39.2834L64.7226 39.5128C64.5938 40.0521 64.3483 40.523 63.9861 40.9254C63.6279 41.3239 63.1691 41.6338 62.6096 41.8551C62.0502 42.0724 61.4103 42.1811 60.6899 42.1811ZM68.8473 36.5668V42H66.6619V32.7273H68.7507V34.3029H68.8594C69.0727 33.7837 69.4128 33.3712 69.8796 33.0653C70.3505 32.7595 70.9321 32.6065 71.6243 32.6065C72.2642 32.6065 72.8216 32.7434 73.2965 33.017C73.7755 33.2907 74.1457 33.6871 74.4073 34.2063C74.6729 34.7255 74.8037 35.3554 74.7997 36.0959V42H72.6143V36.4339C72.6143 35.8142 72.4534 35.3292 72.1314 34.979C71.8134 34.6289 71.3728 34.4538 70.8093 34.4538C70.427 34.4538 70.0869 34.5384 69.7891 34.7074C69.4953 34.8724 69.2638 35.1119 69.0948 35.4258C68.9298 35.7397 68.8473 36.12 68.8473 36.5668ZM81.6516 32.7273V34.4176H76.321V32.7273H81.6516ZM77.6371 30.5057H79.8224V39.2109C79.8224 39.5047 79.8667 39.7301 79.9553 39.8871C80.0478 40.04 80.1686 40.1446 80.3175 40.201C80.4664 40.2573 80.6314 40.2855 80.8125 40.2855C80.9493 40.2855 81.0741 40.2754 81.1868 40.2553C81.3035 40.2352 81.392 40.2171 81.4524 40.201L81.8207 41.9094C81.704 41.9497 81.5369 41.994 81.3196 42.0423C81.1063 42.0906 80.8447 42.1187 80.5348 42.1268C79.9875 42.1429 79.4944 42.0604 79.0558 41.8793C78.6171 41.6941 78.2689 41.4084 78.0114 41.022C77.7578 40.6357 77.633 40.1527 77.6371 39.5732V30.5057ZM86.1476 42.1871C85.56 42.1871 85.0308 42.0825 84.5599 41.8732C84.0931 41.6599 83.7228 41.346 83.4491 40.9315C83.1795 40.5169 83.0447 40.0058 83.0447 39.3981C83.0447 38.8749 83.1412 38.4422 83.3344 38.1001C83.5276 37.758 83.7912 37.4844 84.1253 37.2791C84.4593 37.0739 84.8356 36.9189 85.2542 36.8143C85.6768 36.7056 86.1134 36.6271 86.5642 36.5788C87.1075 36.5225 87.5482 36.4722 87.8863 36.4279C88.2243 36.3796 88.4698 36.3072 88.6228 36.2106C88.7797 36.11 88.8582 35.955 88.8582 35.7457V35.7095C88.8582 35.2547 88.7234 34.9026 88.4537 34.6531C88.1841 34.4035 87.7957 34.2788 87.2886 34.2788C86.7533 34.2788 86.3287 34.3955 86.0148 34.6289C85.7049 34.8623 85.4956 35.138 85.387 35.456L83.3465 35.1662C83.5075 34.6027 83.7731 34.1319 84.1434 33.7536C84.5136 33.3712 84.9664 33.0855 85.5017 32.8963C86.037 32.7031 86.6286 32.6065 87.2765 32.6065C87.7233 32.6065 88.168 32.6589 88.6107 32.7635C89.0534 32.8681 89.4579 33.0412 89.8241 33.2827C90.1904 33.5201 90.4842 33.8441 90.7055 34.2546C90.9309 34.6651 91.0436 35.1783 91.0436 35.794V42H88.9427V40.7262H88.8703C88.7375 40.9838 88.5503 41.2253 88.3089 41.4506C88.0714 41.672 87.7716 41.8511 87.4094 41.9879C87.0512 42.1207 86.6306 42.1871 86.1476 42.1871ZM86.7151 40.5813C87.1538 40.5813 87.5341 40.4948 87.8561 40.3217C88.1781 40.1446 88.4256 39.9112 88.5986 39.6214C88.7757 39.3317 88.8643 39.0157 88.8643 38.6737V37.581C88.7958 37.6373 88.6791 37.6896 88.5141 37.7379C88.3531 37.7862 88.172 37.8285 87.9708 37.8647C87.7696 37.9009 87.5703 37.9331 87.3731 37.9613C87.1759 37.9895 87.0049 38.0136 86.86 38.0337C86.534 38.078 86.2422 38.1504 85.9846 38.2511C85.7271 38.3517 85.5238 38.4925 85.3749 38.6737C85.226 38.8507 85.1515 39.0801 85.1515 39.3619C85.1515 39.7643 85.2984 40.0682 85.5922 40.2734C85.886 40.4787 86.2603 40.5813 86.7151 40.5813ZM97.8714 32.7273V34.4176H92.5407V32.7273H97.8714ZM93.8568 30.5057H96.0422V39.2109C96.0422 39.5047 96.0864 39.7301 96.175 39.8871C96.2675 40.04 96.3883 40.1446 96.5372 40.201C96.6861 40.2573 96.8511 40.2855 97.0322 40.2855C97.1691 40.2855 97.2938 40.2754 97.4065 40.2553C97.5232 40.2352 97.6118 40.2171 97.6721 40.201L98.0404 41.9094C97.9237 41.9497 97.7567 41.994 97.5393 42.0423C97.326 42.0906 97.0644 42.1187 96.7545 42.1268C96.2072 42.1429 95.7142 42.0604 95.2755 41.8793C94.8368 41.6941 94.4887 41.4084 94.2311 41.022C93.9775 40.6357 93.8528 40.1527 93.8568 39.5732V30.5057ZM99.699 42V32.7273H101.884V42H99.699ZM100.798 31.4112C100.452 31.4112 100.154 31.2965 99.9043 31.0671C99.6548 30.8337 99.53 30.554 99.53 30.228C99.53 29.898 99.6548 29.6183 99.9043 29.3888C100.154 29.1554 100.452 29.0387 100.798 29.0387C101.148 29.0387 101.446 29.1554 101.691 29.3888C101.941 29.6183 102.066 29.898 102.066 30.228C102.066 30.554 101.941 30.8337 101.691 31.0671C101.446 31.2965 101.148 31.4112 100.798 31.4112ZM108.176 42.1811C107.271 42.1811 106.486 41.9819 105.822 41.5835C105.158 41.185 104.643 40.6276 104.277 39.9112C103.914 39.1948 103.733 38.3577 103.733 37.3999C103.733 36.442 103.914 35.6029 104.277 34.8825C104.643 34.162 105.158 33.6026 105.822 33.2042C106.486 32.8058 107.271 32.6065 108.176 32.6065C109.082 32.6065 109.867 32.8058 110.531 33.2042C111.195 33.6026 111.708 34.162 112.07 34.8825C112.436 35.6029 112.62 36.442 112.62 37.3999C112.62 38.3577 112.436 39.1948 112.07 39.9112C111.708 40.6276 111.195 41.185 110.531 41.5835C109.867 41.9819 109.082 42.1811 108.176 42.1811ZM108.188 40.4304C108.679 40.4304 109.09 40.2956 109.42 40.0259C109.75 39.7522 109.996 39.386 110.157 38.9272C110.322 38.4684 110.404 37.9573 110.404 37.3938C110.404 36.8263 110.322 36.3132 110.157 35.8544C109.996 35.3916 109.75 35.0233 109.42 34.7496C109.09 34.476 108.679 34.3391 108.188 34.3391C107.685 34.3391 107.267 34.476 106.933 34.7496C106.603 35.0233 106.355 35.3916 106.19 35.8544C106.029 36.3132 105.949 36.8263 105.949 37.3938C105.949 37.9573 106.029 38.4684 106.19 38.9272C106.355 39.386 106.603 39.7522 106.933 40.0259C107.267 40.2956 107.685 40.4304 108.188 40.4304ZM116.66 36.5668V42H114.474V32.7273H116.563V34.3029H116.672C116.885 33.7837 117.225 33.3712 117.692 33.0653C118.163 32.7595 118.745 32.6065 119.437 32.6065C120.077 32.6065 120.634 32.7434 121.109 33.017C121.588 33.2907 121.958 33.6871 122.22 34.2063C122.485 34.7255 122.616 35.3554 122.612 36.0959V42H120.427V36.4339C120.427 35.8142 120.266 35.3292 119.944 34.979C119.626 34.6289 119.185 34.4538 118.622 34.4538C118.239 34.4538 117.899 34.5384 117.602 34.7074C117.308 34.8724 117.076 35.1119 116.907 35.4258C116.742 35.7397 116.66 36.12 116.66 36.5668Z" fill="#CBCBCB"/>
</svg>
