<svg width="17" height="18" viewBox="0 0 17 18" fill="none" xmlns="http://www.w3.org/2000/svg">
<path d="M6 15.9223C1.7 17.3223 1.7 13.4223 0 12.9223M12 17.9223V14.4223C12 13.4223 12.1 13.0223 11.5 12.4223C14.3 12.1223 17 11.0223 17 6.42231C16.9988 5.22728 16.5325 4.07962 15.7 3.22231C16.0905 2.18428 16.0545 1.03394 15.6 0.022314C15.6 0.022314 14.5 -0.277686 12.1 1.32231C10.0672 0.792902 7.93276 0.792902 5.9 1.32231C3.5 -0.277686 2.4 0.022314 2.4 0.022314C1.94548 1.03394 1.90953 2.18428 2.3 3.22231C1.46745 4.07962 1.00122 5.22728 1 6.42231C1 11.0223 3.7 12.1223 6.5 12.4223C5.9 13.0223 5.9 13.6223 6 14.4223V17.9223" stroke="#5D5D5D" stroke-width="2" stroke-linecap="round" stroke-linejoin="round"/>
</svg>
